<svg width="49" height="17" viewBox="0 0 49 17" fill="none" xmlns="http://www.w3.org/2000/svg">
<rect width="49" height="17" rx="4" fill="#EFEFFF"/>
<path d="M11 13.5C11 12.1111 11.4861 10.9306 12.4583 9.95833C13.4306 8.98611 14.6111 8.5 16 8.5C14.6111 8.5 13.4306 8.01389 12.4583 7.04167C11.4861 6.06944 11 4.88889 11 3.5C11 4.88889 10.5139 6.06944 9.54167 7.04167C8.56944 8.01389 7.38889 8.5 6 8.5C7.38889 8.5 8.56944 8.98611 9.54167 9.95833C10.5139 10.9306 11 12.1111 11 13.5Z" fill="#625AFA"/>
<path d="M18.9588 13V4.27273H22.1548C22.7741 4.27273 23.2869 4.375 23.6932 4.57955C24.0994 4.78125 24.4034 5.0554 24.6051 5.40199C24.8068 5.74574 24.9077 6.13352 24.9077 6.56534C24.9077 6.92898 24.8409 7.2358 24.7074 7.4858C24.5739 7.73295 24.3949 7.93182 24.1705 8.08239C23.9489 8.23011 23.7045 8.33807 23.4375 8.40625V8.49148C23.7273 8.50568 24.0099 8.59943 24.2855 8.77273C24.5639 8.94318 24.794 9.18608 24.9759 9.50142C25.1577 9.81676 25.2486 10.2003 25.2486 10.652C25.2486 11.098 25.1435 11.4986 24.9332 11.8537C24.7259 12.206 24.4048 12.4858 23.9702 12.6932C23.5355 12.8977 22.9801 13 22.304 13H18.9588ZM20.2756 11.8707H22.1761C22.8068 11.8707 23.2585 11.7486 23.5312 11.5043C23.804 11.2599 23.9403 10.9545 23.9403 10.5881C23.9403 10.3125 23.8707 10.0597 23.7315 9.82955C23.5923 9.59943 23.3935 9.41619 23.1349 9.27983C22.8793 9.14347 22.5753 9.07528 22.223 9.07528H20.2756V11.8707ZM20.2756 8.0483H22.0398C22.3352 8.0483 22.6009 7.99148 22.8366 7.87784C23.0753 7.7642 23.2642 7.60511 23.4034 7.40057C23.5455 7.19318 23.6165 6.94886 23.6165 6.66761C23.6165 6.30682 23.4901 6.00426 23.2372 5.75994C22.9844 5.51562 22.5966 5.39347 22.0739 5.39347H20.2756V8.0483ZM29.5291 13.1321C28.8842 13.1321 28.3288 12.9943 27.8629 12.7188C27.3999 12.4403 27.0419 12.0497 26.7891 11.5469C26.5391 11.0412 26.4141 10.4489 26.4141 9.76989C26.4141 9.09943 26.5391 8.50852 26.7891 7.99716C27.0419 7.4858 27.3942 7.08665 27.8459 6.79972C28.3004 6.51278 28.8317 6.36932 29.4396 6.36932C29.8089 6.36932 30.1669 6.4304 30.5135 6.55256C30.8601 6.67472 31.1712 6.86648 31.4467 7.12784C31.7223 7.3892 31.9396 7.72869 32.0987 8.14631C32.2578 8.56108 32.3374 9.06534 32.3374 9.65909V10.1108H27.1342V9.15625H31.0888C31.0888 8.82102 31.0206 8.52415 30.8842 8.26562C30.7479 8.00426 30.5561 7.7983 30.3089 7.64773C30.0646 7.49716 29.7777 7.42188 29.4482 7.42188C29.0902 7.42188 28.7777 7.50994 28.5107 7.68608C28.2464 7.85937 28.0419 8.08665 27.897 8.3679C27.755 8.64631 27.6839 8.94886 27.6839 9.27557V10.0213C27.6839 10.4588 27.7607 10.831 27.9141 11.1378C28.0703 11.4446 28.2876 11.679 28.5661 11.8409C28.8445 12 29.1697 12.0795 29.5419 12.0795C29.7834 12.0795 30.0036 12.0455 30.2024 11.9773C30.4013 11.9062 30.5732 11.8011 30.718 11.6619C30.8629 11.5227 30.9737 11.3509 31.0504 11.1463L32.2564 11.3636C32.1598 11.7187 31.9865 12.0298 31.7365 12.2969C31.4893 12.5611 31.1783 12.767 30.8033 12.9148C30.4311 13.0597 30.0064 13.1321 29.5291 13.1321ZM36.8065 6.45455V7.47727H33.2312V6.45455H36.8065ZM34.19 4.88636H35.4641V11.0781C35.4641 11.3253 35.5011 11.5114 35.5749 11.6364C35.6488 11.7585 35.744 11.8423 35.8604 11.8878C35.9798 11.9304 36.109 11.9517 36.2482 11.9517C36.3505 11.9517 36.44 11.9446 36.5167 11.9304C36.5934 11.9162 36.6531 11.9048 36.6957 11.8963L36.9258 12.9489C36.8519 12.9773 36.7468 13.0057 36.6104 13.0341C36.4741 13.0653 36.3036 13.0824 36.0991 13.0852C35.7638 13.0909 35.4513 13.0312 35.1616 12.9062C34.8718 12.7812 34.6374 12.5881 34.4585 12.3267C34.2795 12.0653 34.19 11.7372 34.19 11.3423V4.88636ZM40.1207 13.1449C39.706 13.1449 39.331 13.0682 38.9957 12.9148C38.6605 12.7585 38.3949 12.5327 38.1989 12.2372C38.0057 11.9418 37.9091 11.5795 37.9091 11.1506C37.9091 10.7812 37.9801 10.4773 38.1222 10.2386C38.2642 10 38.456 9.81108 38.6974 9.67188C38.9389 9.53267 39.2088 9.42756 39.5071 9.35653C39.8054 9.28551 40.1094 9.23153 40.419 9.1946C40.8111 9.14915 41.1293 9.11222 41.3736 9.08381C41.6179 9.05256 41.7955 9.00284 41.9062 8.93466C42.017 8.86648 42.0724 8.75568 42.0724 8.60227V8.57244C42.0724 8.20028 41.9673 7.91193 41.7571 7.70739C41.5497 7.50284 41.2401 7.40057 40.8281 7.40057C40.3991 7.40057 40.0611 7.49574 39.8139 7.68608C39.5696 7.87358 39.4006 8.08239 39.3068 8.3125L38.1094 8.03977C38.2514 7.64205 38.4588 7.32102 38.7315 7.0767C39.0071 6.82955 39.3239 6.65057 39.6818 6.53977C40.0398 6.42614 40.4162 6.36932 40.8111 6.36932C41.0724 6.36932 41.3494 6.40057 41.642 6.46307C41.9375 6.52273 42.2131 6.63352 42.4688 6.79545C42.7273 6.95739 42.9389 7.18892 43.1037 7.49006C43.2685 7.78835 43.3509 8.17614 43.3509 8.65341V13H42.1065V12.1051H42.0554C41.973 12.2699 41.8494 12.4318 41.6847 12.5909C41.5199 12.75 41.3082 12.8821 41.0497 12.9872C40.7912 13.0923 40.4815 13.1449 40.1207 13.1449ZM40.3977 12.1222C40.75 12.1222 41.0511 12.0526 41.3011 11.9134C41.554 11.7741 41.7457 11.5923 41.8764 11.3679C42.0099 11.1406 42.0767 10.8977 42.0767 10.6392V9.79545C42.0313 9.84091 41.9432 9.88352 41.8125 9.9233C41.6847 9.96023 41.5384 9.9929 41.3736 10.0213C41.2088 10.0469 41.0483 10.071 40.892 10.0938C40.7358 10.1136 40.6051 10.1307 40.5 10.1449C40.2528 10.1761 40.027 10.2287 39.8224 10.3026C39.6207 10.3764 39.4588 10.483 39.3366 10.6222C39.2173 10.7585 39.1577 10.9403 39.1577 11.1676C39.1577 11.483 39.2741 11.7216 39.5071 11.8835C39.7401 12.0426 40.0369 12.1222 40.3977 12.1222Z" fill="#625AFA"/>
</svg>
